<?xml version="1.0" encoding="UTF-8"?>
<!DOCTYPE svg PUBLIC "-//W3C//DTD SVG 1.1//EN" "http://www.w3.org/Graphics/SVG/1.1/DTD/svg11.dtd">
<!-- Creator: CorelDRAW 2020 (64 Bit) -->
<svg xmlns="http://www.w3.org/2000/svg" xml:space="preserve" width="689.972mm" height="241.657mm" version="1.1" style="shape-rendering:geometricPrecision; text-rendering:geometricPrecision; image-rendering:optimizeQuality; fill-rule:evenodd; clip-rule:evenodd"
viewBox="0 0 42198.09 14779.51"
 xmlns:xlink="http://www.w3.org/1999/xlink"
 xmlns:xodm="http://www.corel.com/coreldraw/odm/2003">
 <defs>
  <style type="text/css">
   <![CDATA[
    .fil0 {fill:white}
    .fil2 {fill:white;fill-rule:nonzero}
    .fil1 {fill:white;fill-rule:nonzero}
   ]]>
  </style>
 </defs>
 <g id="Camada_x0020_1">
  <metadata id="CorelCorpID_0Corel-Layer"/>
  <g id="_2303967177440">
   <g>
    <path class="fil0" d="M34292.86 604.26c-180.32,146.79 -845.64,288.67 -1038.68,307.8 543.45,107.3 1513.59,-96.69 2003.35,-278.13 662.78,-245.55 1419.27,-223.1 1873.28,297.45 541.2,620.48 169.99,941.92 111.17,1107.76 208.16,-91.7 696.1,-509.82 1335.42,-276.07 920.59,336.58 692.64,1666.96 -359.03,1938.23 -447.84,115.53 -1071.15,-51.24 -1309.7,-352.7 172.55,-160.28 349.85,-242.77 439.54,-556.41 -174.92,98.31 -651.83,625.88 -1143.37,308.57 132.54,-206.74 567.58,-467.64 417.36,-1176.88 -145.06,625.16 -462.71,1081.02 -1124.14,1023.31l94.87 -543.67c-7.76,9.27 -15.79,22.04 -20.74,29.75l-200.75 313.1c-273.75,262.02 -896.37,170.5 -1243.92,96.96 -622.59,-131.75 -770.04,-558.58 -1033.26,-930.32 29.12,631.69 341.19,759.74 429,974.12 -630.76,614.8 -1838.14,-273.24 -1561.06,-1315.91 123.21,-463.64 482.5,-738.86 884.87,-835.05l1353.33 -202.53c96.44,-85.68 276.89,-69.92 418.08,-243.31 -262.15,36.84 -461.6,128.15 -788.02,158.13 -795.03,73.01 -1636.86,-7.76 -2034.15,868.88 -245.96,542.78 -100.37,1144.71 205.78,1541.61 361.55,468.76 734.89,595.67 1482.52,666.9 163.33,-441.81 387.65,-470.6 871.99,-489.02 841.59,-31.97 1536.15,99.06 2252.52,579.68 339.11,227.51 269.56,593.03 189.97,1062 -170.03,-1.03 -1219.61,-623.73 -2477.3,-664.09 194.97,-8.09 1123.46,262.58 1855.46,637.89 301.02,26.99 547.25,214.39 740.26,441.65 17.54,20.63 34.6,41.57 51.2,62.79l210.45 -1281.79c356.21,33.89 1675.49,643.74 2169.95,-870.75 256.73,-786.35 -238.64,-1368.11 -925.12,-1514.56 -360.5,-76.89 -447.73,-2.67 -725.53,32.76 -30.59,-958.69 -1265.28,-1946.19 -2462.81,-1332.38 -208.53,106.91 -746.77,408.97 -942.77,414.21z"/>
    <path class="fil0" d="M33972.52 4964.53c260.17,-177.36 385.72,-112.15 683.8,1.87 274.14,104.85 494.74,181.57 696.39,239.21 58.61,-86.45 118.82,-171.81 180.5,-256.12 2.63,-3.62 4.97,-6.65 7.85,-10.11l0.79 -0.94c-648.35,-292.36 -855.59,-486.8 -1984.01,-512.26l-65.1 -531.75c-53.54,111.23 -273.35,819.83 -271.23,944.15 0.55,32.7 4.54,63.83 11.31,93.63 265.11,50.58 485.62,229.81 660.28,435.1 23.24,27.32 45.62,55.14 67.13,83.45 318.85,80.78 665.17,105.97 870.35,116.89 63.41,3.38 166.66,7.57 284.4,9.76 17.54,-29.17 35.23,-58.22 53.15,-87.16 -153.83,-14.87 -311.24,-33.94 -481.78,-61.15 -338.85,-54.05 -739.17,-72.31 -713.84,-464.56z"/>
   </g>
   <path class="fil1" d="M1314.63 3881.91c18.23,2.51 36.72,2.51 55.09,3.75l1032.79 0c18.35,-1.24 36.85,-1.24 55.09,-3.75 36.55,-5.03 72.25,-15.02 106.08,-29.74 175.89,-76.39 272.05,-274.79 234.96,-453.4 -30.45,-146.53 -145.31,-267.58 -286.98,-307.26 -17.72,-4.97 -36.05,-7.5 -54.05,-11.25 -18.37,-1.27 -36.74,-2.51 -55.09,-3.77l-1032.79 0c-48.81,3.35 -61.69,1.71 -109.14,15.02 -35.53,9.95 -69.56,24.72 -101.07,43.88 -143.3,87.16 -219.56,266.07 -185.91,428.02 34.37,165.33 177.1,295.97 341.04,318.5z"/>
   <path class="fil1" d="M2221.09 6328.21c-17.72,-4.97 -36.07,-7.5 -54.06,-11.25 -18.37,-1.25 -36.74,-2.51 -55.1,-3.76l-558.33 0c-48.81,3.33 -61.7,1.71 -109.16,15 -35.53,9.95 -69.53,24.73 -101.07,43.89 -143.28,87.14 -219.55,266.05 -185.89,428 34.37,165.34 177.11,295.97 341.02,318.5 18.26,2.53 36.74,2.53 55.1,3.77l558.33 0c18.37,-1.24 36.85,-1.24 55.1,-3.77 36.53,-5.02 72.24,-15 106.06,-29.74 175.89,-76.37 272.08,-274.78 234.96,-453.4 -30.45,-146.51 -145.31,-267.58 -286.96,-307.26z"/>
   <path class="fil1" d="M4240.38 9329.07c-17.72,-4.96 -36.05,-7.5 -54.05,-11.23 -18.37,-1.26 -36.74,-2.51 -55.09,-3.77l-558.35 0c-48.81,3.35 -61.71,1.7 -109.14,15 -35.55,9.95 -69.56,24.72 -101.07,43.89 -143.3,87.16 -219.55,266.07 -185.91,428 34.37,165.34 177.11,295.99 341.04,318.51 18.23,2.51 36.71,2.51 55.09,3.76l558.35 0c18.35,-1.25 36.84,-1.25 55.09,-3.76 36.52,-5.03 72.25,-15.02 106.08,-29.74 175.86,-76.38 272.05,-274.79 234.94,-453.39 -30.45,-146.53 -145.31,-267.6 -286.96,-307.28z"/>
   <path class="fil2" d="M13318.39 11318.08c-33.63,0 -78.47,-11.21 -130.02,-33.63 -367.67,-156.93 -594.09,-540.29 -677.04,-1147.84 -123.3,-706.19 -183.83,-1259.93 -183.83,-1663.46 0,-262.3 20.18,-490.97 58.28,-686.02 40.35,-195.04 105.37,-457.34 197.29,-791.38 62.77,-208.49 91.92,-331.79 91.92,-367.66 0,-22.42 -8.97,-31.39 -24.66,-31.39l-53.81 0c-629.96,91.92 -1185.94,197.28 -1667.94,320.58 -96.4,17.94 -150.21,42.6 -163.66,71.74 -13.46,31.39 -31.39,96.4 -53.81,197.29 -217.46,798.1 -416.98,1425.82 -596.33,1885.41 -145.72,394.57 -298.17,863.11 -459.59,1405.65 -31.39,118.82 -82.94,177.11 -159.17,177.11 -33.63,0 -78.46,-13.46 -130.02,-38.11 -284.72,-141.23 -441.65,-369.91 -466.31,-683.77l-13.46 -343.01c0,-681.53 62.77,-1387.72 190.56,-2114.08l6.73 -71.74c0,-31.39 -11.21,-47.08 -33.63,-47.08 -35.87,0 -85.19,8.97 -150.2,26.9 -127.79,40.35 -356.46,80.71 -690.49,125.55 -179.35,0 -331.8,-58.29 -459.59,-170.38 -127.79,-114.34 -190.55,-237.64 -190.55,-367.66 0,-91.92 42.59,-179.35 125.54,-257.82 143.48,-116.58 300.41,-206.25 466.31,-269.02 441.65,-170.38 753.27,-271.27 932.62,-302.65 114.34,-20.18 197.28,-47.08 248.84,-73.98 53.81,-29.14 87.43,-82.95 105.37,-161.41 152.45,-582.89 374.39,-1264.42 665.83,-2046.83 291.44,-780.16 607.54,-1407.89 950.55,-1880.93 91.92,-118.81 190.56,-177.1 295.92,-177.1 82.95,0 172.63,38.11 269.03,118.82 226.43,179.35 340.76,396.81 340.76,656.87 0,78.46 -11.2,159.17 -33.63,242.12 -161.42,717.4 -416.99,1661.22 -766.72,2831.48l-13.46 78.46c0,31.39 26.9,44.84 85.19,44.84 257.81,-20.18 508.9,-31.38 755.51,-31.38 271.27,0 544.78,6.72 820.52,20.18 60.53,0 109.85,-11.21 143.48,-33.63 35.87,-22.41 98.64,-161.41 190.56,-421.47 71.74,-199.53 192.8,-522.36 367.66,-964 564.95,-1432.56 1067.13,-2389.83 1504.29,-2871.83 127.79,-134.51 251.09,-201.76 367.67,-201.76 141.23,0 273.5,67.26 401.29,201.76 188.32,192.8 282.48,412.51 282.48,656.87 0,80.71 -8.97,161.42 -26.9,244.36 -100.88,486.48 -255.57,955.04 -466.31,1405.65 -354.22,766.72 -596.33,1300.28 -724.12,1602.93 -130.03,300.41 -195.04,493.21 -195.04,576.16 0,35.87 8.97,60.53 22.41,76.22 15.69,15.69 31.39,26.9 47.08,35.87 15.69,8.97 33.63,26.9 51.56,56.05 20.18,29.14 40.35,62.77 62.77,103.13 22.41,38.11 33.63,80.71 33.63,123.3 0,31.38 -8.97,62.77 -26.9,91.92 -56.05,73.98 -127.79,112.09 -217.46,112.09 -38.11,0 -76.22,-6.73 -109.85,-20.18l-40.35 -6.73c-31.39,0 -51.56,6.73 -62.77,20.18 -11.21,13.45 -24.67,49.32 -42.6,105.36 -594.09,1712.79 -892.26,3093.77 -892.26,4145.21 -4.48,179.35 -15.69,309.38 -33.63,392.33 -17.94,82.94 -58.29,125.54 -125.55,125.54z"/>
   <path id="1" class="fil2" d="M16918.83 9367.66c118.82,-56.05 345.25,-257.82 679.29,-600.82 336.28,-343.01 672.56,-715.15 1015.56,-1114.2 493.21,-582.88 742.06,-939.34 742.06,-1069.37 0,-40.35 -35.87,-82.94 -105.37,-132.27 -51.56,-31.39 -107.61,-82.95 -163.66,-156.93 -31.39,-40.35 -62.77,-60.53 -91.92,-60.53 -31.39,0 -62.77,11.21 -91.92,33.63 -477.52,316.1 -885.54,773.44 -1226.3,1372.02 -338.52,600.82 -591.85,1176.98 -757.75,1728.48zm2107.36 1806.94c-42.6,0 -96.4,-20.18 -156.93,-60.53 -253.33,-143.48 -381.12,-396.81 -381.12,-755.51 0,-244.36 73.98,-715.15 224.19,-1412.37l112.09 -538.05 -26.9 -6.72c-652.38,894.5 -1141.11,1528.95 -1466.18,1905.58 -282.48,331.79 -535.81,499.93 -753.27,499.93 -76.22,0 -150.21,-20.18 -224.19,-60.53 -643.42,-307.14 -966.25,-780.17 -966.25,-1425.83 0,-235.4 42.6,-486.48 125.55,-755.51 183.83,-634.45 457.34,-1284.59 818.28,-1950.43 360.94,-665.83 804.83,-1197.15 1329.42,-1596.21 280.24,-192.8 555.99,-286.96 827.25,-286.96 473.04,0 887.78,244.36 1242,735.33 38.11,60.54 71.73,91.92 98.64,91.92 26.9,0 53.81,-33.63 85.19,-98.64 31.38,-67.26 96.4,-152.45 197.28,-260.05 100.88,-107.61 204.01,-161.42 307.14,-161.42 85.19,0 172.62,31.39 264.54,91.92 271.27,183.83 405.78,423.71 405.78,717.4 0,266.78 -87.43,636.69 -262.3,1109.72 -174.86,473.04 -430.43,1114.21 -768.95,1923.52 -248.85,596.33 -538.05,1304.76 -865.36,2127.53 -35.87,109.85 -89.68,165.89 -165.9,165.89z"/>
   <path id="2" class="fil2" d="M24043.47 11082.68c-152.45,0 -318.34,-91.92 -497.69,-275.75 -179.35,-186.08 -280.24,-394.57 -302.65,-632.21 0,-538.05 244.36,-1421.34 735.33,-2645.4l-33.63 -20.18c-952.79,914.68 -1676.92,1753.13 -2165.65,2515.37 -118.81,174.87 -215.22,307.14 -293.68,396.81 -76.22,89.68 -154.69,134.51 -239.88,134.51 -69.5,0 -150.21,-29.14 -242.12,-85.19 -293.69,-170.38 -439.4,-416.99 -439.4,-742.06l6.72 -143.48c100.89,-894.5 286.96,-1681.39 558.22,-2362.92 271.27,-679.29 612.03,-1363.05 1024.53,-2044.58 114.34,-170.38 248.85,-255.57 405.78,-255.57 233.16,0 464.07,134.51 692.74,403.53 230.91,269.02 345.25,560.47 345.25,876.57 -4.49,96.4 -107.61,318.35 -307.14,670.32 47.08,-22.42 136.76,-100.88 269.03,-237.64 204.01,-230.91 567.19,-544.77 1082.82,-939.34 152.45,-105.37 293.68,-156.93 421.47,-156.93 161.42,0 322.83,80.71 484.25,242.12 293.68,302.65 441.65,665.83 441.65,1091.79 0,304.89 -71.74,618.75 -210.74,939.34l-690.5 1627.59c-73.98,165.9 -172.62,354.22 -295.92,564.95 -96.4,161.41 -277.99,482 -544.77,959.51 -47.08,78.47 -114.34,118.82 -204.01,118.82z"/>
   <path id="3" class="fil2" d="M27612.52 8618.87c396.81,-210.74 883.3,-538.05 1457.21,-986.42 937.1,-735.33 1405.65,-1125.42 1405.65,-1174.74 0,-26.9 -22.41,-51.56 -65.01,-78.47 -96.4,-60.53 -179.35,-147.96 -251.09,-255.57 -33.63,-76.22 -78.47,-112.09 -130.03,-112.09 -22.41,0 -53.8,6.73 -91.92,20.18 -358.7,139 -701.7,365.43 -1024.53,679.29 -325.07,313.86 -605.3,643.41 -845.18,988.66 -237.63,345.24 -403.53,641.17 -495.45,885.54 0,22.41 13.45,33.63 40.35,33.63zm-1248.72 6160.64c-244.36,0 -502.18,-56.05 -768.96,-170.38 -477.52,-215.22 -901.23,-535.81 -1273.38,-961.76 -372.15,-428.19 -663.6,-881.05 -874.33,-1363.05 -96.4,-242.12 -143.48,-448.38 -143.48,-618.76 0,-248.84 73.98,-385.6 221.95,-405.77 35.87,0 73.98,11.2 112.09,31.38 154.69,96.41 230.91,221.95 230.91,374.39 0,219.7 53.81,423.72 163.66,612.03 210.74,358.7 482,672.56 813.8,939.34 136.76,91.92 277.99,136.76 428.2,136.76 78.46,0 156.93,-6.73 235.4,-20.18 854.15,-152.45 1744.17,-919.17 2674.55,-2297.91 694.98,-1037.98 1313.73,-2165.64 1858.5,-3382.97 -13.46,0 -31.39,8.97 -53.81,26.9 -22.41,17.94 -42.59,35.87 -62.77,51.56 -17.94,17.94 -524.6,508.91 -1519.99,1472.91 -215.22,208.49 -416.98,387.84 -609.79,533.56 -192.8,147.96 -390.09,221.94 -591.85,221.94 -147.96,0 -302.65,-53.8 -459.58,-159.17 -513.39,-354.21 -768.96,-780.16 -768.96,-1280.1 0,-437.16 201.76,-999.87 605.3,-1688.12 226.42,-394.57 497.69,-768.96 813.8,-1123.18 721.88,-813.8 1419.1,-1221.81 2089.42,-1221.81 331.79,0 652.38,127.79 957.28,381.11 242.12,215.22 405.78,416.99 490.97,607.55 85.19,190.55 143.48,363.18 172.62,515.63 35.87,188.32 103.13,349.73 204.01,486.48 127.79,161.42 190.56,396.81 190.56,701.7 0,531.32 -156.93,1206.13 -468.55,2031.13 -313.86,822.76 -715.16,1643.29 -1206.13,2459.32 -490.97,816.04 -1011.08,1506.53 -1562.58,2071.49 -298.17,307.14 -603.06,555.98 -914.68,748.78 -309.38,192.8 -638.93,289.2 -984.18,289.2z"/>
   <path id="4" class="fil2" d="M34849.26 11232.89c-44.84,0 -91.92,-11.21 -145.72,-33.63 -446.13,-174.87 -748.78,-490.97 -905.71,-952.79 -26.9,-112.09 -53.81,-170.38 -85.19,-170.38 -35.87,0 -96.4,51.56 -183.83,152.45l-204.01 197.28c-165.89,161.42 -343.01,242.12 -531.32,242.12 -123.3,0 -253.33,-35.87 -394.57,-105.36 -316.1,-156.93 -562.71,-381.12 -742.06,-670.32 -179.35,-289.2 -269.03,-609.78 -269.03,-964 0,-329.56 73.98,-730.85 221.95,-1203.88 150.21,-470.79 325.07,-925.89 526.84,-1358.57 201.77,-432.68 390.09,-773.44 564.95,-1017.8 114.34,-141.24 239.88,-210.74 381.11,-210.74 217.46,0 432.68,123.3 643.42,372.15 210.74,246.61 313.86,502.18 313.86,764.48 -11.21,136.75 -78.47,300.41 -195.04,493.21 -367.67,578.4 -697.22,1354.08 -986.42,2331.53 -17.93,56.05 -26.9,100.89 -26.9,130.03 0,40.35 17.94,60.53 53.81,60.53 73.98,0 255.57,-85.19 544.78,-257.81 253.33,-139 430.44,-282.48 529.08,-428.2 98.64,-147.96 188.32,-351.97 271.27,-614.27 210.74,-623.24 522.35,-1307.01 932.62,-2055.79 163.66,-293.68 345.25,-578.4 547.02,-854.15 116.58,-141.23 248.84,-210.74 392.32,-210.74 224.19,0 439.4,123.3 647.9,367.67 208.5,246.6 311.62,495.45 311.62,748.78 0,123.3 -33.63,235.4 -98.64,336.28 -403.53,585.12 -746.54,1197.15 -1033.5,1833.85 -286.96,638.93 -506.66,1212.85 -661.35,1723.99 -152.45,513.39 -228.67,878.81 -228.67,1098.52 0,165.89 -65.01,251.09 -190.55,255.57z"/>
   <path id="5" class="fil2" d="M39985.37 11232.89c-44.84,0 -91.92,-11.21 -145.72,-33.63 -446.13,-174.87 -748.78,-490.97 -905.71,-952.79 -26.9,-112.09 -53.81,-170.38 -85.19,-170.38 -35.87,0 -96.4,51.56 -183.83,152.45l-204.01 197.28c-165.89,161.42 -343.01,242.12 -531.32,242.12 -123.3,0 -253.33,-35.87 -394.57,-105.36 -316.1,-156.93 -562.71,-381.12 -742.06,-670.32 -179.35,-289.2 -269.03,-609.78 -269.03,-964 0,-329.56 73.98,-730.85 221.95,-1203.88 150.21,-470.79 325.07,-925.89 526.84,-1358.57 201.77,-432.68 390.09,-773.44 564.95,-1017.8 114.34,-141.24 239.88,-210.74 381.11,-210.74 217.46,0 432.68,123.3 643.42,372.15 210.74,246.61 313.86,502.18 313.86,764.48 -11.21,136.75 -78.47,300.41 -195.04,493.21 -367.67,578.4 -697.22,1354.08 -986.42,2331.53 -17.93,56.05 -26.9,100.89 -26.9,130.03 0,40.35 17.94,60.53 53.81,60.53 73.98,0 255.57,-85.19 544.78,-257.81 253.33,-139 430.44,-282.48 529.08,-428.2 98.64,-147.96 188.32,-351.97 271.27,-614.27 210.74,-623.24 522.35,-1307.01 932.62,-2055.79 163.66,-293.68 345.25,-578.4 547.02,-854.15 116.58,-141.23 248.84,-210.74 392.32,-210.74 224.19,0 439.4,123.3 647.9,367.67 208.5,246.6 311.62,495.45 311.62,748.78 0,123.3 -33.63,235.4 -98.64,336.28 -403.53,585.12 -746.54,1197.15 -1033.5,1833.85 -286.96,638.93 -506.66,1212.85 -661.35,1723.99 -152.45,513.39 -228.67,878.81 -228.67,1098.52 0,165.89 -65.01,251.09 -190.55,255.57z"/>
   <rect class="fil0" x="1831.59" y="4622.68" width="6295.77" height="805.41" rx="2330.59" ry="402.71"/>
   <rect class="fil0" x="0" y="7948.73" width="6295.77" height="805.41" rx="2330.59" ry="402.71"/>
   <rect class="fil0" x="4660.36" y="3168.68" width="4810.9" height="805.41" rx="1780.91" ry="402.71"/>
   <rect class="fil0" x="5124.42" y="9302.35" width="2886.94" height="805.41" rx="1068.7" ry="402.71"/>
   <rect class="fil0" x="3322.11" y="6315.07" width="4055.05" height="805.41" rx="1501.11" ry="402.71"/>
  </g>
 </g>
</svg>
